<?xml version="1.0" encoding="utf-8"?>
<svg xmlns="http://www.w3.org/2000/svg">
  <defs>

    <!-- //////// UI Icons - Media Controls //////// -->

    <symbol id="icon-play" viewBox="0 0 24 24">
      <path d="M17.961,10.273c0.623,0.356 1.008,1.018 1.008,1.736c-0,0.718 -0.385,1.381 -1.008,1.737c-2.361,1.349 -5.619,3.211 -7.969,4.553c-0.619,0.354 -1.379,0.351 -1.996,-0.006c-0.616,-0.358 -0.996,-1.017 -0.996,-1.73c-0,-2.692 -0,-6.416 -0,-9.107c0,-0.713 0.38,-1.372 0.996,-1.73c0.617,-0.358 1.377,-0.361 1.996,-0.007c2.35,1.343 5.608,3.204 7.969,4.554Z"/>
    </symbol> 
    
    <symbol id="icon-pause" viewBox="0 0 24 24">
      <path d="M11,6.843l-0,10.333c-0,0.828 -0.672,1.5 -1.5,1.5l-2,-0c-0.828,-0 -1.5,-0.672 -1.5,-1.5l0,-10.333c0,-0.829 0.672,-1.5 1.5,-1.5l2,-0c0.828,-0 1.5,0.671 1.5,1.5Zm7,-0l0,10.333c-0,0.828 -0.672,1.5 -1.5,1.5l-2,-0c-0.828,-0 -1.5,-0.672 -1.5,-1.5l0,-10.333c0,-0.829 0.672,-1.5 1.5,-1.5l2,-0c0.828,-0 1.5,0.671 1.5,1.5Z"/>
    </symbol>
    
    <symbol id="icon-audio-on" viewBox="0 0 24 24">
      <path d="M6.746,8.8c0.242,0 0.476,-0.088 0.658,-0.247c0.484,-0.424 1.505,-1.317 2.402,-2.102c0.295,-0.258 0.714,-0.32 1.071,-0.158c0.358,0.162 0.587,0.518 0.587,0.911c0,2.621 0,6.971 0,9.592c0,0.393 -0.229,0.749 -0.587,0.911c-0.357,0.162 -0.776,0.1 -1.071,-0.158c-0.897,-0.785 -1.918,-1.678 -2.402,-2.102c-0.182,-0.159 -0.416,-0.247 -0.658,-0.247c-0.533,-0 -1.527,-0 -2.282,-0c-0.265,0 -0.519,-0.105 -0.707,-0.293c-0.187,-0.187 -0.293,-0.442 -0.293,-0.707c0,-1.2 0,-3.2 0,-4.4c0,-0.265 0.106,-0.52 0.293,-0.707c0.188,-0.188 0.442,-0.293 0.707,-0.293c0.755,0 1.749,0 2.282,0Z"/>
      <path d="M13.758,9.707c0.608,0.608 0.949,1.432 0.949,2.292c0,0.86 -0.342,1.685 -0.95,2.293c-0.39,0.39 -0.39,1.024 0,1.414c0.39,0.39 1.024,0.39 1.414,0c0.983,-0.983 1.536,-2.316 1.536,-3.707c0,-1.39 -0.552,-2.723 -1.535,-3.706c-0.39,-0.391 -1.024,-0.391 -1.414,-0c-0.391,0.39 -0.391,1.023 -0,1.414Z"/>
      <path d="M16.758,7.707c1.138,1.138 1.778,2.682 1.778,4.292c-0,1.61 -0.64,3.154 -1.778,4.292c-0.39,0.39 -0.39,1.024 -0,1.414c0.39,0.391 1.024,0.391 1.414,0c1.514,-1.513 2.364,-3.566 2.364,-5.706c-0,-2.14 -0.85,-4.193 -2.364,-5.706c-0.39,-0.391 -1.024,-0.391 -1.414,-0c-0.39,0.39 -0.39,1.024 -0,1.414Z"/>
    </symbol>

    <symbol id="icon-audio-off" viewBox="0 0 24 24">
      <path d="M5.941,9.471l7.559,7.559l-0,0.266c-0,0.393 -0.23,0.749 -0.587,0.911c-0.357,0.162 -0.776,0.1 -1.072,-0.158c-0.897,-0.785 -1.917,-1.678 -2.401,-2.102c-0.182,-0.159 -0.416,-0.247 -0.659,-0.247c-0.532,0 -1.526,0 -2.281,0c-0.265,0 -0.52,-0.105 -0.707,-0.293c-0.188,-0.187 -0.293,-0.442 -0.293,-0.707c-0,-1.2 -0,-3.2 -0,-4.4c-0,-0.265 0.105,-0.52 0.293,-0.707c0.045,-0.046 0.095,-0.086 0.148,-0.122Zm2.657,-0.171l0.183,0c0.243,0 0.477,-0.088 0.659,-0.247c0.484,-0.424 1.504,-1.317 2.401,-2.102c0.296,-0.258 0.715,-0.32 1.072,-0.158c0.357,0.162 0.587,0.518 0.587,0.911l-0,6.498l-4.902,-4.902Z"/>
      <path d="M4.793,6.207l13,13c0.39,0.391 1.024,0.391 1.414,0c0.39,-0.39 0.39,-1.024 0,-1.414l-13,-13c-0.39,-0.391 -1.024,-0.391 -1.414,-0c-0.39,0.39 -0.39,1.024 -0,1.414Z"/>
    </symbol>


    <!-- //////// UI Icons - Display Links //////// -->

    <!-- <symbol id="ear" viewBox="0 0 24 24">
      <path class="stroke" d="M6,9.092l0,-0.092c-0,-1.591 0.632,-3.117 1.757,-4.243c1.126,-1.125 2.652,-1.757 4.243,-1.757c0,0 0,0 0,0c1.591,0 3.117,0.632 4.243,1.757c1.125,1.126 1.757,2.652 1.757,4.243c-0,0.056 -0,0.111 -0,0.166c0,1.622 -0.526,3.201 -1.499,4.499c-0.673,0.896 -1.426,1.901 -1.928,2.571c-0.373,0.497 -0.584,1.097 -0.604,1.719c-0.007,0.191 -0.014,0.4 -0.021,0.616c-0.044,1.347 -1.149,2.416 -2.497,2.416c-0.057,-0 -0.114,-0 -0.172,-0c-0.671,-0 -1.315,-0.267 -1.789,-0.741c-0.475,-0.475 -0.742,-1.119 -0.742,-1.79c0,-0.614 0,-1.096 0,-1.096" />
      <path class="stroke" d="M10,11.993c-0,0 0,-1.587 0,-2.972c0,-0.534 0.214,-1.046 0.593,-1.422c0.38,-0.375 0.894,-0.584 1.428,-0.578c1.096,0.011 1.979,0.903 1.979,2c0,0.013 0,0.02 0,0.02" />
      <path class="stroke" d="M11,12c0.552,0 1,0.448 1,1c-0,0.552 -0.448,1 -1,1l-0.005,0c-0.264,0 -0.517,-0.105 -0.704,-0.291c-0.186,-0.187 -0.291,-0.44 -0.291,-0.704c0,-0.502 0,-1.005 0,-1.005l1,0Z" />
    </symbol> -->

    <symbol id="icon-display-image" viewBox="0 0 24 24">
      <path class="stroke" d="M18,30c1.105,0 2,0.895 2,2c0,2.22 0,5.78 0,8c-0,1.105 -0.895,2 -2,2c-3.074,-0 -8.926,0 -12,-0c-1.105,-0 -2,-0.895 -2,-2c0,-2.22 0,-5.78 0,-8c0,-1.105 0.895,-2 2,-2c3.074,0 8.926,0 12,0Z"/>
      <path class="fill" d="M14.367,35.633c0.36,-0.36 0.934,-0.392 1.332,-0.074c1.375,1.1 4.301,3.441 4.301,3.441l0,3l-16,-0c0,-0 2.914,-2.914 4.293,-4.293c0.39,-0.39 1.024,-0.39 1.414,0c0.576,0.576 1.293,1.293 1.293,1.293c-0,-0 2.239,-2.239 3.367,-3.367Z"/>
      <circle class="fill" cx="9" cy="34" r="2"/>
    </symbol>

    <symbol id="icon-display-audio" viewBox="0 0 24 24">
      <path class="stroke" d="M18,54c1.105,0 2,0.895 2,2c0,2.22 0,5.78 0,8c-0,1.105 -0.895,2 -2,2c-3.074,-0 -8.926,-0 -12,-0c-1.105,-0 -2,-0.895 -2,-2c0,-2.22 0,-5.78 0,-8c0,-1.105 0.895,-2 2,-2c3.074,-0 8.926,-0 12,-0Z" />
      <path class="stroke" d="M11.5,58c-0,-0 0,0 0,0c0.758,0.379 1.236,1.153 1.236,2c0,0.847 -0.478,1.621 -1.236,2c0,-0 -0,-0 0,-0" />
      <path class="stroke" d="M14.5,56.5c0,-0 0.001,0.001 0.003,0.002c1.244,0.726 2.009,2.058 2.009,3.498c0,1.44 -0.765,2.772 -2.009,3.498c-0.002,0.001 -0.003,0.002 -0.003,0.002" />
      <circle class="fill" cx="8.5" cy="60" r="1.5"/>
    </symbol>

    <symbol id="icon-display-video" viewBox="0 0 24 24">
      <path class="stroke" d="M18,78c1.105,0 2,0.895 2,2c0,2.22 0,5.78 0,8c-0,1.105 -0.895,2 -2,2c-3.074,-0 -8.926,-0 -12,-0c-1.105,-0 -2,-0.895 -2,-2c0,-2.22 0,-5.78 0,-8c0,-1.105 0.895,-2 2,-2c3.074,0 8.926,0 12,0Z" />
      <path class="fill" d="M14.854,83.073c0.333,0.19 0.538,0.544 0.538,0.927c0,0.383 -0.205,0.737 -0.538,0.927c-1.261,0.721 -3.001,1.715 -4.256,2.432c-0.331,0.189 -0.737,0.188 -1.066,-0.003c-0.329,-0.191 -0.532,-0.543 -0.532,-0.924c0,-1.438 0,-3.426 0,-4.864c0,-0.381 0.203,-0.733 0.532,-0.924c0.329,-0.191 0.735,-0.192 1.066,-0.003c1.255,0.717 2.995,1.711 4.256,2.432Z"/>
    </symbol>


    <!-- //////// Usagi Heads //////// -->

    <symbol id="usagi-head1" viewBox="0 0 100 100">
      <path d="M29.505,43.798c-1.937,-5.939 -5.093,-16.775 -4.39,-22.405c1.001,-8.009 1.638,-11.793 5.808,-12.445c4.169,-0.651 7.472,2.517 9.955,16.593c1.507,8.543 1.655,12.771 1.624,15.922c1.981,-0.078 3.949,-0.104 5.843,-0.159c2.066,-0.061 4.03,-0.05 5.895,0.03c0.146,-4.412 0.536,-10.8 1.571,-14.963c1.716,-6.901 1.711,-18.395 9.956,-17.423c8.245,0.973 5.408,11.041 4.978,17.423c-0.28,4.141 -1.594,12.339 -2.482,17.586c9.159,3.633 13.414,10.977 13.267,22.236c-0.229,17.519 -19.409,25.655 -32.356,24.888c-12.947,-0.766 -31.237,-6.85 -30.696,-26.548c0.341,-12.399 4.908,-18.083 11.027,-20.735Z"/>
    </symbol>

    <symbol id="usagi-head2" viewBox="0 0 100 100">
      <path d="M73.538,47.591c5.695,4.326 8.646,11.257 7.016,22.802c-1.819,12.889 -14.344,23.53 -38.332,18.453c-17.07,-3.613 -25.991,-16.735 -22.457,-30.564c2.966,-11.609 9.244,-16.382 17.203,-17.81c0.957,-5.344 2.306,-13.105 2.641,-16.151c0.533,-4.845 0.169,-14.71 7.468,-14.455c7.298,0.255 6.874,8.149 6.456,14.453c-0.25,3.756 -1.384,10.998 -2.26,16.239c1.377,0.176 2.771,0.382 4.177,0.609c2.017,0.325 3.97,0.701 5.836,1.151c1.462,-5.388 3.604,-13.34 4.462,-16.835c1.359,-5.537 2.25,-11.343 8.178,-11.169c5.928,0.175 8.04,9.995 4.806,18.948c-1.852,5.127 -3.836,10.593 -5.194,14.329Z"/>
    </symbol>

    <symbol id="usagi-head3" viewBox="0 0 100 100">
      <path d="M66.51,41.198c6.089,2.175 11.078,7.434 13.084,18.449c3.77,20.698 -8.373,29.481 -24.721,32.263c-16.347,2.782 -30.26,-1.489 -34.377,-20.205c-2.448,-11.129 0.935,-18.948 9.122,-24.169c-1.527,-4.742 -4.143,-13.098 -5.171,-17.794c-1.492,-6.814 -4.241,-13.829 -0.14,-15.991c5.131,-2.706 10.108,2.09 12.842,11.892c1.929,6.918 3.508,12.925 4.514,16.836c1.288,-0.354 2.627,-0.681 4.017,-0.981c2.311,-0.499 4.742,-0.964 7.201,-1.264c-0.612,-4.844 -1.504,-12.367 -1.805,-17.33c-0.475,-7.83 -2.925,-14.325 1.476,-15.443c4.401,-1.119 10.736,4.247 12.433,17.05c0.932,7.04 1.344,12.867 1.525,16.687Z"/>
    </symbol>

    <symbol id="usagi-head4" viewBox="0 0 100 100">
      <path d="M73.182,46.881c3.939,5.169 5.964,11.616 6.052,18.398c0.201,15.583 -12.863,28.274 -33,27c-20.138,-1.275 -30.051,-10.698 -31,-28c-0.857,-15.622 10.312,-27.16 27.318,-28.816c1.068,-4.062 2.867,-9.872 5.682,-16.184c4.716,-10.576 11.267,-13.014 15,-11c5.848,3.155 -0.59,10.461 -2.491,17.207c-1.076,3.818 -2.188,7.959 -3.039,11.173c1.177,0.328 2.305,0.71 3.386,1.143c1.471,-3.334 3.683,-7.914 6.144,-11.523c4.368,-6.407 9.399,-12.872 15,-10c5.6,2.871 0.901,12.263 -3,18c-2.478,3.643 -4.56,8.629 -6.052,12.602Z"/>
    </symbol>

    <symbol id="usagi-head5" viewBox="0 0 100 100">
      <path d="M32.579,38.259l-0.064,-19.764c-0.016,-4.957 0.57,-11.942 5.893,-12.198c5.323,-0.255 7.193,4.498 7.193,11.819l0,17.914c1.566,-0.09 3.171,-0.138 4.81,-0.154c1.319,-0.014 2.633,0.031 3.936,0.135l-0.058,-17.759c-0.016,-4.957 0.57,-11.942 5.893,-12.197c5.323,-0.255 7.194,4.498 7.194,11.819l-0,21.397c9.757,4.425 16.836,13.192 16.715,26.406c-0.139,15.176 -9.724,28.024 -34.171,28.274c-20.344,0.209 -34.095,-8.954 -34.012,-27.67c0.075,-16.841 6.577,-24.628 16.671,-28.022Z"/>
    </symbol>


    <!-- //////// Generic Shapes //////// -->

    <symbol id="circle1" viewBox="0 0 32 32">
      <circle cx="16" cy="16" r="14"/>
    </symbol>

    <symbol id="star1" viewBox="0 0 32 32">
      <path d="M14.506,1.907c0.29,-0.557 0.866,-0.907 1.494,-0.907c0.628,0 1.204,0.35 1.494,0.907l3.234,6.228c0.127,0.246 0.311,0.459 0.535,0.621c0.224,0.163 0.483,0.272 0.756,0.317l6.922,1.152c0.62,0.103 1.131,0.542 1.325,1.14c0.194,0.597 0.039,1.253 -0.402,1.701l-4.923,5c-0.194,0.197 -0.34,0.437 -0.426,0.701c-0.085,0.263 -0.108,0.543 -0.067,0.817l1.044,6.939c0.093,0.621 -0.167,1.243 -0.675,1.612c-0.508,0.369 -1.18,0.425 -1.742,0.144l-6.277,-3.137c-0.248,-0.124 -0.521,-0.188 -0.798,-0.188c-0.277,-0 -0.55,0.064 -0.798,0.188l-6.277,3.137c-0.562,0.281 -1.234,0.225 -1.742,-0.144c-0.508,-0.369 -0.768,-0.991 -0.675,-1.612l1.044,-6.939c0.041,-0.274 0.018,-0.554 -0.067,-0.817c-0.086,-0.264 -0.232,-0.504 -0.426,-0.701l-4.923,-5c-0.441,-0.448 -0.596,-1.104 -0.402,-1.701c0.194,-0.598 0.705,-1.037 1.325,-1.14l6.922,-1.152c0.273,-0.045 0.532,-0.154 0.756,-0.317c0.224,-0.162 0.408,-0.375 0.535,-0.621l3.234,-6.228Z"/>
    </symbol>

    <symbol id="triangle1" viewBox="0 0 32 32">
      <path d="M14.268,7.203c0.357,-0.619 1.017,-1.001 1.732,-1.001c0.715,0 1.375,0.382 1.732,1.001c2.279,3.949 6.26,10.85 8.538,14.798c0.357,0.618 0.356,1.381 -0.001,1.999c-0.357,0.619 -1.017,1 -1.732,1c-4.556,0 -12.518,0 -17.074,0c-0.715,0 -1.375,-0.381 -1.732,-1c-0.357,-0.618 -0.358,-1.381 -0.001,-1.999c2.278,-3.948 6.259,-10.849 8.538,-14.798Z"/>
    </symbol>


    <!-- //////// Nova Logos //////// -->

    <symbol id="nova-logotype-redraw-simple" viewBox="0 0 330 90">
      <path d="M4,2l51,41.219l-0,-37.219l22,-0l-0,84l-51,-41.219l-0,37.219l-22,-0l-0,-84Z" />
      <path d="M127,4c23.18,-0 42,18.82 42,42c0,23.18 -18.82,42 -42,42c-23.18,-0 -42,-18.82 -42,-42c0,-23.18 18.82,-42 42,-42Zm0,22c-11.038,-0 -20,8.962 -20,20c0,11.038 8.962,20 20,20c11.038,-0 20,-8.962 20,-20c0,-11.038 -8.962,-20 -20,-20Z" />
      <path d="M212,90l49,-84l-25,-0l-24,40l-24,-40l-25,-0l49,84Z" />
      <path d="M277,2l49,84l-25,-0l-24,-40l-24,40l-25,-0l49,-84Z" />
    </symbol>

    <symbol id="nova-logotype-redraw" viewBox="0 0 350 120">
      <path d="M16,16l51,41.219l-0,-37.219l22,-0l-0,84l-51,-41.219l-0,37.219l-22,-0l-0,-84Z"/>
      <path d="M139,18c23.18,-0 42,18.82 42,42c0,23.18 -18.82,42 -42,42c-23.18,-0 -42,-18.82 -42,-42c0,-23.18 18.82,-42 42,-42Zm0,22c-11.038,-0 -20,8.962 -20,20c0,11.038 8.962,20 20,20c11.038,-0 20,-8.962 20,-20c0,-11.038 -8.962,-20 -20,-20Z"/>
      <path d="M224,104l49,-84l-25,-0l-24,40l-24,-40l-25,-0l49,84Z"/>
      <path d="M289,16l49,84l-25,-0l-24,-40l-24,40l-25,-0l49,-84Z m0,57l16,27l-32,-0l16,-27Z"/>
    </symbol>

    <symbol id="nova-logotype-original" viewBox="0 0 350 120">
      <path d="M19,16l0,81l25,0l0,-26l48,43l0,-97l-24,0l0,42l-49,-43Z"/>
      <path d="M223,101l49,-84l-25,0l-24,40l-24,-40l-25,0l49,84Z"/>
      <path d="M286,13l-49,84l25,0l24,-40l24,40l25,0l-49,-84Z"/>
      <path d="M286,69l-16.333,28l32.666,0l-16.333,-28Z"/>
      <path d="M140,15c22.766,0 41.25,18.484 41.25,41.25c0,22.766 -18.484,41.25 -41.25,41.25c-22.766,0 -41.25,-18.484 -41.25,-41.25c0,-22.766 18.484,-41.25 41.25,-41.25Zm0,22.25c10.486,0 19,8.514 19,19c0,10.486 -8.514,19 -19,19c-10.486,-0 -19,-8.514 -19,-19c0,-10.486 8.514,-19 19,-19Z"/>
    </symbol>


    <!-- //////// Flag Icons //////// -->

    <symbol id="flag-en" viewBox="0 0 32 24">
      <rect x="0" y="0" width="32" height="24" style="fill:#fff;"/>
      <rect x="0" y="0" width="32" height="24" style="fill:#fff;"/>
      <rect x="0" y="0" width="16" height="12" style="fill:#192f5d;"/>
      <rect x="21" y="0" width="11" height="8" style="fill:#192f5d;"/>
      <rect x="21" y="16" width="11" height="8" style="fill:#192f5d;"/>
      <g>
          <circle cx="13" cy="9" r="1" style="fill:#fff;"/>
          <circle cx="13" cy="6" r="1" style="fill:#fff;"/>
          <circle cx="13" cy="3" r="1" style="fill:#fff;"/>
          <circle cx="9.667" cy="9" r="1" style="fill:#fff;"/>
          <circle cx="9.667" cy="6" r="1" style="fill:#fff;"/>
          <circle cx="9.667" cy="3" r="1" style="fill:#fff;"/>
          <circle cx="6.333" cy="9" r="1" style="fill:#fff;"/>
          <circle cx="6.333" cy="6" r="1" style="fill:#fff;"/>
          <circle cx="6.333" cy="3" r="1" style="fill:#fff;"/>
          <circle cx="3" cy="9" r="1" style="fill:#fff;"/>
          <circle cx="3" cy="6" r="1" style="fill:#fff;"/>
          <circle cx="3" cy="3" r="1" style="fill:#fff;"/>
      </g>
      <rect x="0" y="14" width="16" height="3" style="fill:#c8102e;"/>
      <rect x="0" y="19" width="16" height="3" style="fill:#c8102e;"/>
      <g>
          <path d="M28,0l-8,5l0,5l2,-0l10,-7l0,-3l-4,0Z" style="fill:#fff;"/>
          <path d="M31,0l-10,7l0,1l1,-0l10,-7l0,-1l-1,0Z" style="fill:#c8102e;"/>
      </g>
      <g>
          <path d="M28,24l-8,-5l0,-5l2,0l10,7l0,3l-4,0Z" style="fill:#fff;"/>
          <path d="M31,24l-10,-7l0,-1l1,0l10,7l0,1l-1,-0Z" style="fill:#c8102e;"/>
      </g>
      <rect x="16" y="-0" width="3" height="24" style="fill:#c8102e;"/>
      <rect x="18" y="10" width="14" height="4" style="fill:#c8102e;"/>
    </symbol>

    <symbol id="flag-de" viewBox="0 0 32 24">
      <rect x="0" y="0" width="32" height="24" style="fill:#fc0;"/>
      <rect x="0" y="0" width="32" height="8"/>
      <rect x="0" y="8" width="32" height="8" style="fill:#f00;"/>
    </symbol>
    
    <symbol id="flag-es" viewBox="0 0 32 24">
      <rect x="0" y="0" width="32" height="24" style="fill:#aa151b;"/>
      <rect x="0" y="6" width="32" height="12" style="fill:#f1bf00;"/>
      <circle cx="8" cy="12" r="4" style="fill:#aa151b;"/>
    </symbol>
    
    <symbol id="flag-fr" viewBox="0 0 32 24">
      <rect x="0" y="0" width="32" height="24" style="fill:#fff;"/>
      <rect x="0" y="0" width="11" height="24" style="fill:#000091;"/>
      <rect x="21" y="0" width="11" height="24" style="fill:#e1000f;"/>
    </symbol>

    <symbol id="flag-it" viewBox="0 0 32 24">
      <rect x="0" y="0" width="32" height="24" style="fill:#fff;"/>
      <rect x="0" y="0" width="11" height="24" style="fill:#009246;"/>
      <rect x="21" y="0" width="11" height="24" style="fill:#ce2b37;"/>
    </symbol>

    <symbol id="flag-ja" viewBox="0 0 32 24">
      <rect x="0" y="0" width="32" height="24" style="fill:#fff;"/>
      <circle cx="16" cy="12" r="7" style="fill:#bc002d;"/>
    </symbol>

    <symbol id="flag-ko" viewBox="0 0 32 24">
      <rect x="0" y="0" width="32" height="24" style="fill:#fff;"/>
      <circle cx="16" cy="12" r="5" style="fill:#0047a0;"/>
      <path d="M11,12c-0,-2.76 2.24,-5 5,-5c2.76,-0 5,2.24 5,5l-10,-0Z" style="fill:#cd2e3a;"/>
      <circle cx="7" cy="6" r="2"/>
      <circle cx="7" cy="18" r="2"/>
      <circle cx="25" cy="6" r="2"/>
      <circle cx="25" cy="18" r="2"/>
    </symbol>

    <symbol id="flag-zh" viewBox="0 0 32 24">
      <rect x="-0" y="0" width="32" height="24" style="fill:#ee1c25;"/>
      <circle cx="7" cy="8" r="3" style="fill:#ff0;"/>
      <circle cx="12.5" cy="4.5" r="1.5" style="fill:#ff0;"/>
      <circle cx="12.5" cy="12.5" r="1.5" style="fill:#ff0;"/>
      <circle cx="15.5" cy="8.5" r="1.5" style="fill:#ff0;"/>
    </symbol>

  </defs>
</svg>